<svg xmlns="http://www.w3.org/2000/svg" viewBox="279.71712330975953 33.809067712 509.9481536067893 694.2933548000001" id="svg1" version="1.1" style="max-height: 500px" width="509.9481536067893" height="694.2933548000001">
  <defs id="defs1"/>
  
    
  
  <g id="g1">
    <g id="group-R5">
      <path transform="matrix(0.13333333,0,0,-0.13333333,0,754.66667)" style="fill:#553120;fill-opacity:1;fill-rule:nonzero;stroke:none" d="m 3700.76,4737.99 c 0,0 44.43,258.2 243.2,454.21 198.78,196.01 480.07,208.3 618.48,140.43 138.38,-67.88 180.8,-194.68 182.34,-267.16 0,0 190.08,19.79 280.36,-101.27 90.25,-121.06 71.28,-303.31 -12.68,-452.4 0,0 403.17,-379.22 458.95,-946.43 0,0 346.95,4.1 368.96,-333.31 22.02,-337.41 -63.04,-753.52 -486.51,-649.55 l -19.67,-48.39 c 0,0 127.28,-161.45 -8.74,-301.9 0,0 179.56,-208.6 243.61,-444.92 0,0 194.73,-89.05 169.08,-262.99 -25.66,-173.95 -160,-210.4 -213.91,-209.31 0,0 -41.7,-141.79 -246.69,-128.51 0,0 23.09,-167.74 -12.33,-305.041 0,0 140.56,-151.578 112.13,-283.738 -28.4,-132.148 -183.55,-268.18 -465.69,-153.461 0,0 -184.08,-246.641 -482.42,-34.969 0,0 -198.39,-207.301 -458.19,94.879 0,0 -290.62,-385.051 -631.95,-122.551 0,0 -362.98,-243.437 -483.53,92.661 0,0 -259.19,-78.661 -317.52,92.949 -58.36,171.621 76.68,298.09 204.31,349.48 0,0 -71.8,199.761 -67.56,409.701 0,0 -44.72,7.85 -72.71,35.1 0,0 -98.07,-95.27 -216.15,-48.84 -118.06,46.43 -136.64,148.9 -116.89,213.22 0,0 -133.92,70.54 -109.65,211.28 24.3,140.75 176.22,201.26 251.95,203.44 0,0 28.45,100.31 91.39,180.14 62.93,79.85 108.02,105.22 134.33,114.6 0,0 -123.53,119.03 -15.02,244.38 l -10.61,30.24 c 0,0 -279.61,-42.54 -370.52,208.54 -90.91,251.08 -100.65,577.16 45.14,722.89 145.8,145.73 236.51,114.84 261.43,114.03 0,0 72.05,373.94 234.47,594.17 162.43,220.22 489.3,467.12 918.81,588.4" id="path2"/>
      <path transform="matrix(0.13333333,0,0,-0.13333333,0,754.66667)" style="fill:#5ec7d2;fill-opacity:1;fill-rule:nonzero;stroke:none" d="m 2699.58,2519.1 c 0,0 -81.99,482.75 -72.93,816.22 9.05,333.48 140.14,668.05 366.76,894.68 226.61,226.61 620.04,384.54 712.56,408.68 92.55,24.13 75.04,41.6 85.1,81.33 10.04,39.73 51.02,260.34 208.94,405.26 157.9,144.91 385.08,174.02 515.45,126.42 130.37,-47.6 134.78,-165.92 130.96,-208.48 -3.84,-42.57 1.44,-62.8 37.55,-64.17 36.12,-1.38 167,34.53 260.66,-67.43 93.67,-101.98 42.44,-264.62 4.11,-331.1 -38.32,-66.46 -59.17,-96.06 -29.98,-123.66 29.22,-27.62 285.35,-296.32 393.72,-585.37 108.34,-289.06 40.82,-936.9 -57.59,-1305.35 0,0 -118.97,68.22 -338.5,103.74 -219.51,35.52 -940.01,67.36 -1431.98,16.52 -491.94,-50.81 -650.84,-96.38 -784.83,-167.29" id="path3"/>
      <path transform="matrix(0.13333333,0,0,-0.13333333,0,754.66667)" style="fill:#1eb1ed;fill-opacity:1;fill-rule:nonzero;stroke:none" d="m 4402.08,5272.6 c -126.29,5.08 -283.45,-38.82 -401.87,-147.5 -157.9,-144.91 -199.17,-365.56 -209.21,-405.29 -7.56,-29.8 0.27,-47.07 -34.32,-64.02 34.15,4.77 389.2,52.9 660.84,-1.16 256.23,-50.96 477.48,-192.13 524.77,-222.93 -7.17,7.45 -20.49,22.37 -23.43,25.15 -29.22,27.62 -8.61,57 29.71,123.48 38.33,66.45 89.68,229.59 -4,331.56 -93.67,101.96 -224.56,65.5 -260.67,66.87 -36.11,1.37 -41.56,22.03 -37.72,64.6 3.82,42.56 -0.55,160.49 -130.92,208.07 -32.57,11.91 -71.08,19.46 -113.18,21.17" id="path4"/>
      <path transform="matrix(0.13333333,0,0,-0.13333333,0,754.66667)" style="fill:#553120;fill-opacity:1;fill-rule:nonzero;stroke:none" d="m 4220.02,4948.81 c 4.49,33.45 21.16,105.33 56.54,110.66 35.37,5.34 100.57,-5.01 100.57,-61.63 0,-56.6 -77.21,-162.95 -119.8,-145.5 -42.56,17.45 -41.79,63.04 -37.31,96.47" id="path5"/>
      <path transform="matrix(0.13333333,0,0,-0.13333333,0,754.66667)" style="fill:#553120;fill-opacity:1;fill-rule:nonzero;stroke:none" d="m 4657.29,4795.18 c 8.29,26.32 16.27,83.17 51.27,78.25 34.99,-4.94 97.09,-37.42 95.08,-68 -2.03,-30.57 -63.96,-89.5 -83.44,-105.43 -19.49,-15.95 -80.53,-18.81 -80.13,11.5 0.42,30.33 8.92,57.35 17.22,83.68" id="path6"/>
      <path transform="matrix(0.13333333,0,0,-0.13333333,0,754.66667)" style="fill:#1eb1ed;fill-opacity:1;fill-rule:nonzero;stroke:none" d="m 2583.8,2599.04 -15.2,204.39 c 0,0 -91.83,-7.65 -111.69,-8.75 -19.87,-1.1 -64.36,-2.02 -71.4,35.51 -7.06,37.53 27.22,51.6 68.93,53.81 41.72,2.2 106.19,5.75 106.19,5.75 l -14.95,218.49 c 0,0 -85.29,-4.47 -112.46,-4.25 -27.15,0.24 -67.7,4.85 -67.94,44.34 -0.22,39.48 33.4,45.77 73.79,44.51 40.37,-1.28 106.06,-2.05 106.06,-2.05 0,0 -10.75,174.19 -1.66,275.93 0,0 -135.73,4.89 -212.16,-121.96 -76.43,-126.84 -87.31,-218.69 -75.04,-353.14 12.26,-134.43 88.3,-424.11 327.53,-392.58" id="path7"/>
      <path transform="matrix(0.13333333,0,0,-0.13333333,0,754.66667)" style="fill:#553120;fill-opacity:1;fill-rule:nonzero;stroke:none" d="m 3492.88,3882.37 c 276.09,-21.99 410.66,-273.92 421.87,-523.82 11.19,-249.89 -73.72,-445.64 -351.15,-542.36 -277.41,-96.71 -584.4,55.87 -669.35,234.26 -84.95,178.37 -81.09,379.06 31.54,549.82 112.62,170.78 291,304.09 567.09,282.1" id="path8"/>
      <path transform="matrix(0.13333333,0,0,-0.13333333,0,754.66667)" style="fill:#ffffff;fill-opacity:1;fill-rule:nonzero;stroke:none" d="m 3468.52,3791.69 c 225.95,-18.24 336.08,-227.34 345.25,-434.76 9.16,-207.42 -60.33,-369.9 -287.38,-450.19 -227.03,-80.27 -478.26,46.38 -547.79,194.44 -69.53,148.06 -66.37,314.63 25.81,456.38 92.18,141.73 238.15,252.39 464.11,234.13" id="path9"/>
      <path transform="matrix(0.13333333,0,0,-0.13333333,0,754.66667)" style="fill:#553120;fill-opacity:1;fill-rule:nonzero;stroke:none" d="m 3603.35,3364.52 c 155.63,-2.42 136.24,-209.18 -11.91,-212.96 -148.13,-3.79 -143.74,215.35 11.91,212.96" id="path10"/>
      <path transform="matrix(0.13333333,0,0,-0.13333333,0,754.66667)" style="fill:#553120;fill-opacity:1;fill-rule:nonzero;stroke:none" d="m 4643.11,3931.32 c -293.82,-23.36 -550.76,-270.88 -562.67,-536.27 -11.92,-265.37 78.44,-473.25 373.69,-575.97 295.25,-102.71 621.93,59.33 712.35,248.77 90.4,189.44 34.66,469.35 -33.57,583.9 -68.23,114.57 -195.97,302.91 -489.8,279.57" id="path11"/>
      <path transform="matrix(0.13333333,0,0,-0.13333333,0,754.66667)" style="fill:#ffffff;fill-opacity:1;fill-rule:nonzero;stroke:none" d="m 4655.02,3834.3 c -240.46,-19.4 -467.84,-248.86 -477.61,-469.14 -9.74,-220.26 76.95,-388.63 308.59,-467.4 231.62,-78.75 515.36,51.15 589.35,208.37 73.99,157.25 35.48,386.11 -26.29,486.86 -61.79,100.78 -153.56,260.68 -394.04,241.31" id="path12"/>
      <path transform="matrix(0.13333333,0,0,-0.13333333,0,754.66667)" style="fill:#553120;fill-opacity:1;fill-rule:nonzero;stroke:none" d="m 4469.14,3365.54 c -158.17,6 -137.41,-205.7 -9.95,-212.43 127.45,-6.75 168.15,206.45 9.95,212.43" id="path13"/>
      <path transform="matrix(0.13333333,0,0,-0.13333333,0,754.66667)" style="fill:#f1bbd3;fill-opacity:1;fill-rule:nonzero;stroke:none" d="m 4341.77,2267.23 c 0,0 290.67,-18.36 497.61,-12.16 206.92,6.22 440.39,6.05 457.08,115.27 16.73,109.23 -379.25,248.71 -850.62,250.03 -471.37,1.3 -1012.08,-8.25 -1316.56,-63.88 -304.5,-55.62 -456.92,-120.62 -460.31,-188.46 -3.38,-67.85 251.17,-118.43 572.57,-112.1 321.4,6.33 411.17,10.46 411.17,10.46 0,0 -142.56,55.51 -223.63,83.36 -81.08,27.82 -163.25,50.82 -304.32,25.57 -141.08,-25.22 -251.05,-46.36 -284.49,-53.82 -33.44,-7.46 -55.45,-6.84 -68.23,22.36 -12.79,29.18 10.81,49.54 59.82,62.36 49,12.82 319.6,68.84 457.33,63 137.72,-5.84 160.48,-31.97 289.03,-76.41 128.54,-44.41 273.47,-89.05 412.41,-89.07 138.91,-0.02 325.28,59.16 436.35,94.02 111.08,34.86 242.31,64.53 326.67,59.26 84.39,-5.27 273.23,-4.77 347.25,-15.43 74.05,-10.62 104.45,-43.13 96.9,-73.44 -7.56,-30.33 -45,-29.18 -126.4,-14.56 -81.43,14.59 -340.58,13.28 -412.34,1.16 -71.75,-12.13 -317.29,-87.52 -317.29,-87.52" id="path14"/>
      <path transform="matrix(0.13333333,0,0,-0.13333333,0,754.66667)" style="fill:#1eb1ed;fill-opacity:1;fill-rule:nonzero;stroke:none" d="m 5379.5,2671.46 34.55,189.66 c 0,0 81.33,-19.43 110.72,-29.08 29.35,-9.67 56.33,-7.18 65.08,24.2 8.72,31.37 -14.2,54.2 -58.94,68.17 -44.77,13.98 -102.46,28.17 -102.46,28.17 l 29.22,203.67 c 0,0 89.33,-19.71 117.17,-25.89 27.87,-6.17 59.16,-3.96 63.75,30.28 4.58,34.27 -31.18,47.2 -60.59,54.81 -29.42,7.63 -112.77,20.14 -112.77,20.14 0,0 11.31,165.81 10.49,236.2 0,0 140.78,-2.67 215.45,-90.3 74.65,-87.62 74.75,-239.6 61.26,-369.67 -13.47,-130.08 -77.83,-286.91 -178.75,-340.23 -100.93,-53.32 -194.18,-0.13 -194.18,-0.13" id="path15"/>
      <path transform="matrix(0.13333333,0,0,-0.13333333,0,754.66667)" style="fill:#5ec7d2;fill-opacity:1;fill-rule:nonzero;stroke:none" d="m 2723.33,2204.12 c 0,0 126.54,-52.68 454.9,-47.91 328.35,4.78 1065.15,-2.32 1293.38,2.38 228.22,4.72 663.77,-5.8 766.59,39.44 0,0 106.93,-127.12 176.88,-257.67 69.93,-130.54 43.32,-193.98 80.8,-219.08 37.46,-25.11 114.15,-48.15 145.26,-117.01 31.12,-68.86 -24.24,-195.61 -99.84,-196.07 -75.61,-0.46 -79.74,-5.01 -87.19,-42.11 -7.42,-37.08 -112.82,-128.29 -178.2,-85.3 -65.36,43.01 -72.84,23.6 -98.74,7.5 -25.91,-16.09 -98.93,-33.69 -159.76,34.5 -60.8,68.22 -35.68,152.93 0.92,181.78 36.58,28.87 19.88,76.15 -14.29,82.72 -34.17,6.55 -84.75,-23.73 -109.33,-84.54 -24.57,-60.82 -20.11,-172.53 64.97,-250.31 85.11,-77.76 172.87,-70.03 226.02,-63.44 0,0 18.08,-150.22 12.84,-212.539 -5.2,-62.313 -43.66,-109.832 -20.42,-139.492 23.21,-29.649 135.22,-146.77 94.55,-239.481 -40.69,-92.699 -172.04,-136.879 -253.23,-103.629 -81.18,33.243 -125.54,72.5 -160.35,34.543 -34.81,-37.961 -155.25,-153.281 -268.63,-109.98 -113.38,43.297 -125.18,89.93 -169.32,93.73 -44.16,3.809 -84.91,-77.324 -182.61,-79.632 -97.7,-2.309 -202.57,105.062 -229.8,160.32 l 2.57,120.73 c 0,0 39.76,1.43 65.21,1.489 25.44,0.031 45.05,17.851 43.12,46.281 -1.94,28.41 -22.58,37.25 -43.97,38.98 -21.37,1.739 -149.52,3.668 -194.81,3.86 -45.31,0.172 -59.56,-16.739 -61.76,-39.071 -2.19,-22.328 22.21,-46.718 99.9,-43.16 L 3923,570.84 c 0,0 -170.47,-181.442 -331.34,-188.199 -160.85,-6.77 -196.15,96.82 -248.58,94.539 -52.41,-2.289 -145.58,-99.391 -274.04,-93.77 -128.45,5.629 -136.94,118.512 -134.76,151.969 2.19,33.453 -30.55,60.043 -76.41,38.711 -45.84,-21.328 -181.96,-56.098 -231.19,14.93 -49.24,71.011 20.51,184.082 89.75,219.539 69.21,35.472 138.89,31.64 122.59,89 -16.31,57.371 -76.52,247.541 -74.34,442.211 0,0 99.44,23.12 162.75,107.38 63.33,84.26 23.29,223.03 -3.75,265.2 -27.03,42.21 -85.66,56.62 -98.32,14.62 -12.67,-42 103.48,-171.18 -0.44,-256.52 -103.94,-85.35 -190.96,-43.1 -209.54,-24.51 -18.61,18.59 -64.23,27.04 -82.81,-15.2 -18.59,-42.25 -73.21,-61.57 -135.63,-24.57 -62.43,36.99 -47.87,115.27 -43.42,150.81 4.42,35.54 -30.08,45.7 -69,58.79 -38.93,13.1 -81.19,101.71 -9.13,179.5 72.06,77.81 186.68,49.17 215.45,80.74 28.79,31.55 -4.98,143.59 232.49,328.11" id="path16"/>
      <path transform="matrix(0.13333333,0,0,-0.13333333,0,754.66667)" style="fill:#553120;fill-opacity:1;fill-rule:nonzero;stroke:none" d="m 4127.7,1463.13 c -11.92,0.7 -24.12,-2.89 -33.74,-11.44 -19.22,-17.09 -21.09,-46.5 -4.01,-65.73 10.16,-11.42 27.53,-27.15 51.47,-42.31 78.6,-49.85 172.07,-59.05 269.81,-2.29 22.25,12.94 30.07,41.22 17.14,63.45 -12.91,22.25 -41.78,30.08 -64.02,17.17 -64.84,-37.66 -121.87,-32 -173.22,0.57 -9.31,5.91 -17.59,12.03 -24.57,18.29 -3.89,3.48 -6.12,6.03 -6.85,6.86 -8.55,9.6 -20.13,14.72 -32.01,15.43" id="path17"/>
      <path transform="matrix(0.13333333,0,0,-0.13333333,0,754.66667)" style="fill:#553120;fill-opacity:1;fill-rule:nonzero;stroke:none" d="m 3804.13,1921.03 c -11.76,1.93 -24.42,-0.52 -34.87,-8.02 -20.91,-14.98 -25.84,-43.68 -10.86,-64.59 9.13,-12.74 24.93,-30.3 46.88,-47.45 77.22,-60.37 172.1,-69.55 268.67,5.15 20.36,15.74 24.31,44.82 8.58,65.16 -15.73,20.34 -44.82,24.32 -65.18,8.58 -59.64,-46.13 -108.79,-41.75 -154.9,-5.72 -8.29,6.48 -15.46,13.66 -21.73,20.58 -3.53,3.91 -5.58,7.02 -6.3,8 -7.48,10.45 -18.53,16.36 -30.29,18.31" id="path18"/>
      <path transform="matrix(0.13333333,0,0,-0.13333333,0,754.66667)" style="fill:#553120;fill-opacity:1;fill-rule:nonzero;stroke:none" d="m 3191.91,1919.31 c -11.84,1.55 -24.68,-1.32 -34.88,-9.15 -20.4,-15.66 -24.22,-44.77 -8.58,-65.18 8.92,-11.62 24.02,-27.38 45.16,-42.86 73.56,-53.84 163.28,-62.62 254.96,3.42 20.88,15.04 25.89,44.3 10.85,65.17 -15.02,20.88 -44.28,25.89 -65.16,10.85 -55.86,-40.22 -101.85,-36.29 -145.2,-4.57 -7.76,5.69 -14.73,12.26 -20.56,18.29 -3.28,3.39 -5.17,5.55 -5.73,6.29 -7.83,10.22 -19.04,16.17 -30.86,17.74" id="path19"/>
      <path transform="matrix(0.13333333,0,0,-0.13333333,0,754.66667)" style="fill:#553120;fill-opacity:1;fill-rule:nonzero;stroke:none" d="m 4399.79,1919.87 c -11.26,3.91 -23.86,3.33 -35.44,-2.29 -23.15,-11.23 -32.95,-39.16 -21.72,-62.31 7.3,-15.03 20.31,-35.61 38.87,-56.59 72.46,-81.93 171,-91.44 264.68,17.73 16.74,19.52 14.94,48.98 -4.57,65.74 -19.54,16.74 -49.01,14.37 -65.75,-5.16 -53.59,-62.45 -86.92,-59.2 -124.62,-16.57 -7.05,7.98 -13.47,16.45 -18.87,25.15 -3.12,5.06 -4.97,8.77 -5.7,10.3 -5.63,11.56 -15.63,20.11 -26.88,24" id="path20"/>
      <path transform="matrix(0.13333333,0,0,-0.13333333,0,754.66667)" style="fill:#553120;fill-opacity:1;fill-rule:nonzero;stroke:none" d="m 3462.86,1497.42 c -11.91,0.49 -24.27,-3.85 -33.73,-12.57 -18.9,-17.45 -20.31,-46.83 -2.86,-65.75 10.91,-11.8 29.51,-28.29 53.75,-44.57 74.89,-50.33 156.93,-64.37 234.94,-15.44 9.4,5.89 18.54,12.37 27.43,20.01 19.52,16.76 21.92,46.22 5.14,65.74 -16.75,19.51 -46.22,21.9 -65.72,5.14 -5.42,-4.64 -11.18,-8.61 -16.6,-12.01 -40.95,-25.68 -85.61,-17.68 -133.18,14.31 -10.23,6.87 -19.83,14.35 -28.01,21.7 -4.72,4.25 -7.92,7.27 -9.15,8.58 -8.72,9.46 -20.1,14.38 -32.01,14.86" id="path21"/>
    </g>
  </g>
</svg>